<svg version="1.2" xmlns="http://www.w3.org/2000/svg" viewBox="0 0 1534 303" width="1534" height="303">
	<title>Corteva_logo-svg</title>
	<defs>
		<clipPath clipPathUnits="userSpaceOnUse" id="cp1">
			<path d="m0.49 0.54h143.88v145.2h-143.88z"/>
		</clipPath>
		<clipPath clipPathUnits="userSpaceOnUse" id="cp2">
			<path d="m0.49 0.54h313.45v301.89h-313.45z"/>
		</clipPath>
		<clipPath clipPathUnits="userSpaceOnUse" id="cp3">
			<path d="m1500.92 24.74h32.41v36.3h-32.41z"/>
		</clipPath>
		<clipPath clipPathUnits="userSpaceOnUse" id="cp4">
			<path d="m447.17 218.34h60.56v84.09h-60.56z"/>
		</clipPath>
	</defs>
	<style>
		.s0 { fill: #2b73c2 } 
		.s1 { fill: #211e1e } 
	</style>
	<g id="Layer">
		<g id="e">
		</g>
		<g id="e">
		</g>
		<g id="Layer">
			<g id="f">
			</g>
			<g id="f">
			</g>
			<g id="g">
			</g>
			<g id="h">
			</g>
			<g id="h">
			</g>
			<g id="h">
			</g>
			<g id="i">
			</g>
			<g id="j">
			</g>
			<g id="k">
			</g>
			<g id="Clip-Path" clip-path="url(#cp1)">
				<g id="Layer">
					<path id="Layer" class="s0" d="m0.5 143.1l142.8-142.6c-76.9 4.2-138.5 65.8-142.8 142.6z"/>
				</g>
			</g>
			<g id="Clip-Path" clip-path="url(#cp2)">
				<g id="Layer">
					<path id="Layer" class="s0" d="m298.6 188.2h-78.9l53.6 53.5c-7.7 10.3-16.7 19.7-26.8 27.8l-138.1-138-20.9 20.9 133.7 133.5c-12.6 6.6-26.2 11.3-40.5 14.1l-120.5-120.4-20.9 20.9 102 101.9c-53.7-3.6-99.7-35.2-123.6-80.3-3.2-6.3-6.1-12.7-8.5-19.4-2.5-6.7-4.4-13.7-5.9-20.8l178.7-178.6c13.9 2.9 27 7.6 39.3 13.9 0.3 0.2 0.6 0.4 0.9 0.5 18 9.5 33.9 22.5 46.7 38.1h-84.8l-27.6 27.6h130.4c6 12 10.6 25 13.3 38.6h-146.7l27.6 27.6h122c0 0.7 0 1.3 0 2 0 12.6-1.6 24.9-4.5 36.6z"/>
				</g>
			</g>
		</g>
		<path id="Layer" class="s1" d="m382.5 101.4c0-11.3 2-21.6 6.1-30.9 4-9.2 9.5-17.1 16.4-23.6 6.9-6.6 15.1-11.6 24.6-15.1 9.4-3.6 19.5-5.3 30.2-5.3q16.4 0 31 5.3 14.7 5.3 24.5 14.3l-29.3 35.3c-2.7-3.5-6-6.1-10-7.9-4-1.9-8.5-2.8-13.4-2.8q-6.1 0-11.3 2.2-5.2 2.1-9.1 6.1c-2.6 2.6-4.6 5.9-6.1 9.7-1.5 3.8-2.2 8-2.2 12.7q0 7 2.2 12.5 2.4 5.6 6.3 9.5c2.6 2.7 5.6 4.8 9.1 6.2q5.2 2 11.1 2.1 8.2 0 14.1-3.4c3.9-2.3 7-5 9.3-8.1l29.3 35.1c-6.4 6.4-14.3 11.5-23.7 15.4q-14 5.6-31.8 5.6-16.1 0-30.2-5.4-14.2-5.4-24.6-15.3-10.4-9.9-16.4-23.7c-4.1-9.1-6.1-19.3-6.1-30.5z"/>
		<path id="Layer" fill-rule="evenodd" class="s1" d="m541.1 100.6q0-17 6-30.8c4-9.1 9.6-16.9 16.6-23.3 7-6.4 15.3-11.4 24.9-14.8 9.7-3.5 20.1-5.3 31.4-5.3q16.8 0 31.2 5.3c9.6 3.4 18 8.4 25.1 14.8 7.1 6.4 12.6 14.2 16.6 23.3q6.1 13.8 6.1 30.8 0 17-6.1 31.1c-4 9.3-9.5 17.3-16.6 23.9q-10.6 9.9-25.1 15.3c-9.6 3.6-20 5.5-31.2 5.5-11.3 0-21.7-1.9-31.4-5.5q-14.4-5.4-24.9-15.3c-7-6.6-12.6-14.6-16.6-23.9q-6-14.1-6-31.1zm50.8 0c0 4.7 0.7 8.9 2 12.8q2.2 5.8 5.9 10c2.5 2.9 5.4 5 8.9 6.6 3.5 1.5 7.2 2.3 11.3 2.3 3.9 0 7.7-0.8 11.1-2.3 3.4-1.6 6.3-3.7 8.9-6.6 2.5-2.8 4.5-6.1 5.9-10q2.1-5.8 2.1-12.8 0-6.8-2.1-12.5c-1.4-3.8-3.4-7-5.9-9.6-2.6-2.7-5.5-4.7-8.9-6.2-3.4-1.4-7.2-2.1-11.1-2.1-4.1 0-7.8 0.7-11.3 2.1-3.5 1.5-6.4 3.5-8.9 6.2q-3.7 3.9-5.9 9.6c-1.3 3.8-2 8-2 12.5z"/>
		<path id="Layer" fill-rule="evenodd" class="s1" d="m735.3 30.5h61.1c6.9 0 13.9 0.7 20.8 2.1 6.9 1.4 13 3.9 18.4 7.4 5.5 3.6 9.9 8.3 13.2 14.2 3.3 6 5 13.4 5 22.3q0 13.1-6.4 23-6.4 9.9-18.4 15.3l36 57.6h-54.8l-27.2-50.8h-1.4v50.8h-46.3zm45.9 59.9h9.3q2.4 0 5.3-0.4 2.9-0.4 5.4-1.7c1.6-0.9 3-2.1 4.1-3.6 1.2-1.6 1.7-3.6 1.7-6.1 0-2.6-0.4-4.6-1.3-6.1-1-1.4-2.2-2.5-3.6-3.2-1.5-0.8-3.1-1.3-4.8-1.5-1.7-0.2-3.3-0.3-4.8-0.3h-11.3z"/>
		<path id="Layer" class="s1" d="m975.1 172.4h-47.8v-101.7h-34.9v-40.2h117.6v40.2h-34.9z"/>
		<path id="Layer" class="s1" d="m1052.9 30.5h97.6v39.7h-52.7v12.2h49.5v37h-49.5v13.2h56.1v39.8h-101z"/>
		<path id="Layer" class="s1" d="m1185.6 30.5h54l23.4 87.7h0.8l22.5-87.7h53.9l-51.3 141.9h-53z"/>
		<path id="Layer" fill-rule="evenodd" class="s1" d="m1397.7 30.5h50.8l55.3 141.9h-51.9l-7.5-20.9h-45.1l-7 20.9h-50.5zm24.7 49.4l-11.7 35.1h23.1z"/>
		<path id="Layer" class="s1" d="m1498.3 34.9v16.8h-5.2v-16.8h-6v-4.4h17.2v4.4z"/>
		<g id="Clip-Path" clip-path="url(#cp3)">
			<g id="Layer">
				<path id="Layer" class="s1" d="m1528.3 51.7l0.1-15h-0.1l-5.5 15h-3.6l-5.4-15h-0.1l0.1 15h-4.8v-21.2h7.3l4.9 13.6h0.1l4.6-13.6h7.4v21.2z"/>
			</g>
		</g>
		<path id="Layer" fill-rule="evenodd" class="s1" d="m441.1 222.5v49.5h-10.8v-7.1c-3.7 5.3-9.6 8.4-17.3 8.4-13.5 0-24.7-11.4-24.7-26 0-14.8 11.2-26.1 24.7-26.1 7.7 0 13.6 3.2 17.3 8.3v-7zm-10.7 24.8c0-9.2-6.7-15.9-15.7-15.9-8.9 0-15.6 6.7-15.6 15.9 0 9.2 6.7 15.9 15.6 15.9 9 0 15.7-6.7 15.7-15.9z"/>
		<g id="Clip-Path" clip-path="url(#cp4)">
			<g id="Layer">
				<path id="Layer" fill-rule="evenodd" class="s1" d="m507.5 222.5v47.3c0 15.9-12.5 23.4-25.5 23.4-10.9 0-19.3-4.1-23.5-12l9.3-5.4c2.1 4.3 5.8 7.6 14.4 7.6 9.3 0 14.8-5 14.8-13.6v-6.1c-3.8 5.4-9.6 8.7-17.3 8.7-13.9 0-25-11.5-25-25.6 0-14.2 11.1-25.6 25-25.6 7.7 0 13.5 3.3 17.3 8.6v-7.3zm-10.5 24.3c0-8.9-6.8-15.6-15.8-15.6-9 0-15.8 6.7-15.8 15.6 0 8.9 6.8 15.5 15.8 15.5 9 0 15.8-6.6 15.8-15.5z"/>
			</g>
		</g>
		<path id="Layer" class="s1" d="m549.9 221.6v11.6c-7-0.5-15.2 2.8-15.2 13.9v24.9h-10.7v-49.5h10.7v8.3c2.9-6.7 9-9.2 15.2-9.2z"/>
		<path id="Layer" class="s1" d="m561.9 222.5h10.7v49.5h-10.7zm-1.6-14.2c0-3.8 3.1-6.8 6.9-6.8 3.8 0 6.8 3 6.8 6.8 0 3.6-3 6.8-6.8 6.8-3.8 0-6.9-3.1-6.9-6.8z"/>
		<path id="Layer" class="s1" d="m624.9 258.1c0 9.9-8.6 15.2-19.3 15.2-10 0-17.1-4.4-20.2-11.6l9.2-5.3c1.6 4.4 5.5 7.1 11 7.1 4.7 0 8.4-1.6 8.4-5.5 0-8.8-26.6-3.9-26.6-21.6 0-9.3 8-15.2 18.1-15.2 8.1 0 14.8 3.8 18.3 10.3l-9 5.1c-1.8-3.9-5.2-5.6-9.3-5.6-3.9 0-7.3 1.6-7.3 5.2 0 9 26.7 3.6 26.7 21.9z"/>
		<path id="Layer" class="s1" d="m634.2 247.3c0-14.8 11.3-26.1 26.2-26.1 9.7 0 18.2 5.1 22.2 12.8l-9.3 5.4c-2.2-4.7-7-7.7-13-7.7-8.7 0-15.4 6.7-15.4 15.6 0 8.9 6.7 15.5 15.4 15.5 6 0 10.8-3.1 13.2-7.6l9.2 5.3c-4.1 7.8-12.6 12.8-22.3 12.8-14.9 0-26.2-11.4-26.2-26z"/>
		<path id="Layer" class="s1" d="m694.4 222.5h10.8v49.5h-10.8zm-1.5-14.2c0-3.8 3.1-6.8 6.9-6.8 3.8 0 6.8 3 6.8 6.8 0 3.6-3 6.8-6.8 6.8-3.8 0-6.9-3.1-6.9-6.8z"/>
		<path id="Layer" fill-rule="evenodd" class="s1" d="m745.8 263.5c6 0 10.4-2.6 12.8-6.1l8.8 5.1c-4.5 6.7-12 10.8-21.7 10.8-16.4 0-27-11.1-27-26 0-14.7 10.6-26.1 26.2-26.1 14.8 0 24.9 11.9 24.9 26.2 0 1.5-0.2 3-0.4 4.5h-39.5c1.7 7.7 8 11.6 15.9 11.6zm13.2-20.4c-1.5-8.5-7.7-12.2-14.2-12.2-8 0-13.5 4.8-15 12.2z"/>
		<path id="Layer" class="s1" d="m828.3 241.6v30.4h-10.7v-29.3c0-7.5-4.4-11.5-11.1-11.5-7 0-12.6 4.2-12.6 14.3v26.5h-10.7v-49.5h10.7v6.3c3.2-5.1 8.6-7.6 15.4-7.6 11.1 0 19 7.5 19 20.4z"/>
		<path id="Layer" class="s1" d="m841 247.3c0-14.8 11.2-26.1 26.2-26.1 9.7 0 18.1 5.1 22.1 12.8l-9.2 5.4c-2.2-4.7-7.1-7.7-13-7.7-8.7 0-15.4 6.7-15.4 15.6 0 8.9 6.7 15.5 15.4 15.5 5.9 0 10.8-3.1 13.2-7.6l9.2 5.3c-4.2 7.8-12.6 12.8-22.3 12.8-15 0-26.2-11.4-26.2-26z"/>
		<path id="Layer" fill-rule="evenodd" class="s1" d="m924.7 263.5c6 0 10.4-2.6 12.8-6.1l8.8 5.1c-4.6 6.7-12 10.8-21.7 10.8-16.4 0-27-11.1-27-26 0-14.7 10.6-26.1 26.2-26.1 14.8 0 24.9 11.9 24.9 26.2 0 1.5-0.2 3-0.4 4.5h-39.5c1.7 7.7 8 11.6 15.9 11.6zm13.2-20.4c-1.5-8.5-7.8-12.2-14.2-12.2-8 0-13.5 4.8-15 12.2z"/>
		<g id="i">
		</g>
		<g id="i">
		</g>
	</g>
</svg>